<svg viewBox="0 0 256 301" xmlns="http://www.w3.org/2000/svg">
  <defs>
    <linearGradient id="brave-a" x1="50%" x2="50%" y1="0%" y2="100%">
      <stop offset="0%" stop-color="#FF5500"/>
      <stop offset="40%" stop-color="#FF5500"/>
      <stop offset="100%" stop-color="#FF2000"/>
    </linearGradient>
  </defs>
  <path fill="url(#brave-a)" d="M241.87 73.17l8.92-21.76-19.95-18.88C227.1 29.17 213.88 3.5 213.88 3.5L178.57 0l-25.9 24.33h-49.5L77.28 0 41.97 3.5s-13.22 25.67-16.96 29.03L5.06 51.41l8.92 21.76S0 95.75 0 117.52c0 21.77 32.42 98.52 38.77 111.03 6.35 12.51 17.63 37.47 48.64 54.53 31.01 17.06 40.28 17.72 40.28 17.72S136.96 301 128 301s-.7-.2-.7-.2 9.27-.66 40.28-17.72c31.01-17.06 42.29-42.02 48.64-54.53 6.35-12.51 38.77-89.26 38.77-111.03 0-21.77-13.98-44.35-13.98-44.35h.86zM195.49 199.8c-4.1 8.11-11.35 19.3-24.9 30.25-13.55 10.95-27.56 16.5-40.31 21.23l-2.28.84-2.28-.84c-12.75-4.73-26.76-10.28-40.31-21.23-13.55-10.95-20.8-22.14-24.9-30.25-4.1-8.11-25.1-63.35-27.38-72.12-2.28-8.77 2.28-15.55 5.69-19.65 3.41-4.1 20.47-18.32 20.47-18.32l-5.69-22.93 17.06-3.41 11.37 15.93 17.06-3.41-9.09-22.93 25.02-16.15h26.96l25.02 16.15-9.09 22.93 17.06 3.41 11.37-15.93 17.06 3.41-5.69 22.93s17.06 14.22 20.47 18.32c3.41 4.1 7.97 10.88 5.69 19.65-2.28 8.77-23.28 64.01-27.38 72.12z"/>
  <path fill="#FFFFFF" d="M128 107.24l-22.74 68.21 22.74 14.77 22.74-14.77z"/>
</svg>