<svg viewBox="0 0 256 256" xmlns="http://www.w3.org/2000/svg">
  <defs>
    <linearGradient id="edge-a" x1="50%" x2="50%" y1="0%" y2="100%">
      <stop offset="0%" stop-color="#0C59A4"/>
      <stop offset="100%" stop-color="#114A8B"/>
    </linearGradient>
    <linearGradient id="edge-b" x1="0%" x2="100%" y1="50%" y2="50%">
      <stop offset="0%" stop-color="#1B9DE2"/>
      <stop offset="100%" stop-color="#50E6FF"/>
    </linearGradient>
  </defs>
  <path fill="url(#edge-a)" d="M231.074 179.094c-3.37 1.684-6.905 3.152-10.586 4.398-16.022 5.418-33.273 6.426-49.885 2.912-19.093-4.04-35.996-14.97-47.69-30.84-18.594-25.24-22.45-58.078-10.18-86.635C127.16 36.09 160.4 13.68 198.69 13.68c5.11 0 10.22.333 15.28 1.002C177.75 6.102 138.55 3.94 101.67 17.09 50.68 35.26 13.87 84.06 13.87 141.38c0 29.69 10.19 56.96 27.27 78.56l.17-.13c29.95-23.79 68.77-32.77 105.75-24.5 38.09 8.52 68.89 36.13 83.97 71.31l.04.09c-.01-.03 32.47-56.56.03-87.62z"/>
  <path fill="url(#edge-b)" d="M126.25 206.99c-33.99-28.6-39.58-79.6-12.47-113.99 9.68-12.27 22.72-21.48 37.58-26.54 16.88-5.76 35.11-6.16 52.24-1.14 6.25 1.84 12.26 4.36 17.92 7.5-11.87-17.44-28.64-31.05-48.22-39.11-41.95-17.27-90.64-3.31-116.37 33.31-17.23 24.52-21.49 55.31-11.63 84.07 8.65 25.21 27.58 45.95 51.41 56.34 23.83 10.39 50.82 10.69 74.89.83l.04-.02c-17.73 3.04-35.96.89-52.49-6.17-17.47-7.47-32.14-20.12-42.26-36.43l-.03-.05-.01.02c6.34 17.89 18.15 33.26 33.65 43.85l.04.02c-.1-.07-.19-.14-.29-.21z"/>
</svg>